<svg width="61" height="60" viewBox="0 0 61 60" fill="none" xmlns="http://www.w3.org/2000/svg">
<path d="M42.5645 43.4375H17.6044C17.0927 43.4375 16.6684 43.0125 16.6684 42.5C16.6684 41.9875 17.0927 41.5625 17.6044 41.5625H42.5645C43.0762 41.5625 43.5006 41.9875 43.5006 42.5C43.5006 43.0125 43.0762 43.4375 42.5645 43.4375Z" fill="#025595"/>
<path opacity="0.4" d="M41.3175 27.4748V42.4999H18.7901L18.8525 27.4623C18.8525 26.6998 19.2019 25.9749 19.8135 25.4999L28.5499 18.6999C29.4485 17.9874 30.7215 17.9874 31.6201 18.6999L33.2925 19.9999L38.8214 24.2999L40.3565 25.4999C40.9681 25.9749 41.3175 26.6999 41.3175 27.4748Z" fill="#025595"/>
<path d="M31.3326 36.25H28.8365C27.8006 36.25 26.9644 37.0875 26.9644 38.125V42.5H33.2047V38.125C33.2047 37.0875 32.3685 36.25 31.3326 36.25Z" fill="#025595"/>
<path d="M26.9645 32.1875H24.4684C23.782 32.1875 23.2204 31.625 23.2204 30.9375V29.0625C23.2204 28.375 23.782 27.8125 24.4684 27.8125H26.9645C27.651 27.8125 28.2126 28.375 28.2126 29.0625V30.9375C28.2126 31.625 27.651 32.1875 26.9645 32.1875Z" fill="#025595"/>
<path d="M35.7006 32.1875H33.2045C32.518 32.1875 31.9564 31.625 31.9564 30.9375V29.0625C31.9564 28.375 32.518 27.8125 33.2045 27.8125H35.7006C36.387 27.8125 36.9486 28.375 36.9486 29.0625V30.9375C36.9486 31.625 36.387 32.1875 35.7006 32.1875Z" fill="#025595"/>
<path d="M38.8207 24.3L33.2918 20H37.5477C38.2341 20 38.7957 20.55 38.7957 21.2375L38.8207 24.3Z" fill="#025595"/>
<ellipse opacity="0.05" cx="30.0844" cy="30" rx="29.9522" ry="30" fill="#025595"/>
</svg>
